<svg width="846" height="204" viewBox="0 0 846 204" fill="none" xmlns="http://www.w3.org/2000/svg">
<path d="M846 54.6796L831.9 45.5379C817.8 36.7379 789.6 17.9417 761.4 27.3398C733.2 36.7379 705 72.6214 676.8 104.831C648.6 136.699 620.4 164.039 592.2 182.237C564 200.777 535.8 209.32 507.6 200.52C479.4 191.379 451.2 164.039 423 154.897C394.8 146.097 366.6 154.641 338.4 145.841C310.2 136.699 282 109.359 253.8 100.217C225.6 91.4175 197.4 99.9612 169.2 109.359C141 118.757 112.8 127.301 84.6 127.557C56.4 127.301 28.2 118.757 14.1 113.887L3.43323e-05 109.359V0H14.1C28.2 0 56.4 0 84.6 0C112.8 0 141 0 169.2 0C197.4 0 225.6 0 253.8 0C282 0 310.2 0 338.4 0C366.6 0 394.8 0 423 0C451.2 0 479.4 0 507.6 0C535.8 0 564 0 592.2 0C620.4 0 648.6 0 676.8 0C705 0 733.2 0 761.4 0C789.6 0 817.8 0 831.9 0H846V54.6796Z" fill="#7A0BC0"/>
</svg>
