<svg width="837" height="227" viewBox="0 0 837 227" fill="none" xmlns="http://www.w3.org/2000/svg">
<path d="M0 0L13.95 20.0353C27.9 40.4469 55.8 79.9531 83.7 90.3C111.6 100.647 139.5 79.9531 167.4 80.2353C195.3 79.9531 223.2 100.647 251.1 100.365C279 100.647 306.9 79.9531 334.8 95.2853C362.7 110.053 390.6 160.847 418.5 180.6C446.4 200.353 474.3 190.947 502.2 185.585C530.1 180.6 558 180.6 585.9 160.565C613.8 140.153 641.7 100.647 669.6 90.3C697.5 79.9531 725.4 100.647 753.3 105.35C781.2 110.053 809.1 100.647 823.05 95.2853L837 90.3V301H823.05C809.1 301 781.2 301 753.3 301C725.4 301 697.5 301 669.6 301C641.7 301 613.8 301 585.9 301C558 301 530.1 301 502.2 301C474.3 301 446.4 301 418.5 301C390.6 301 362.7 301 334.8 301C306.9 301 279 301 251.1 301C223.2 301 195.3 301 167.4 301C139.5 301 111.6 301 83.7 301C55.8 301 27.9 301 13.95 301H0V0Z" fill="#7A0BC0"/>
</svg>
